<svg width="34" height="34" viewBox="0 0 34 34" fill="none" xmlns="http://www.w3.org/2000/svg">
<rect width="34" height="34" rx="8" fill="#F86F46" fill-opacity="0.1"/>
<path d="M14.625 13.2417C14.1583 13.2417 13.7916 13.6167 13.7916 14.075C13.7916 14.5334 14.1666 14.9084 14.625 14.9084C15.0833 14.9084 15.4583 14.5334 15.4583 14.075C15.4583 13.6167 15.0833 13.2417 14.625 13.2417Z" fill="#F86F46"/>
<path d="M24.8833 11.1998C24.1833 9.57484 22.6416 8.6665 20.4916 8.6665H13.5083C10.8333 8.6665 8.66663 10.8332 8.66663 13.5082V20.4915C8.66663 22.6415 9.57496 24.1832 11.2 24.8832C11.3583 24.9498 11.5416 24.9082 11.6583 24.7915L24.7916 11.6582C24.9166 11.5332 24.9583 11.3498 24.8833 11.1998ZM15.775 17.1998C15.45 17.5165 15.025 17.6665 14.6 17.6665C14.175 17.6665 13.75 17.5082 13.425 17.1998C12.575 16.3998 11.6416 15.1248 12 13.6082C12.3166 12.2332 13.5333 11.6165 14.6 11.6165C15.6666 11.6165 16.8833 12.2332 17.2 13.6165C17.55 15.1248 16.6166 16.3998 15.775 17.1998Z" fill="#F86F46"/>
<path d="M23.225 24.1084C23.4083 24.2918 23.3833 24.5918 23.1583 24.7168C22.425 25.1251 21.5333 25.3334 20.4916 25.3334H13.5083C13.2666 25.3334 13.1666 25.0501 13.3333 24.8834L18.3666 19.8501C18.5333 19.6834 18.7916 19.6834 18.9583 19.8501L23.225 24.1084Z" fill="#F86F46"/>
<path d="M25.3333 13.5084V20.4917C25.3333 21.5334 25.125 22.4334 24.7167 23.1584C24.5917 23.3834 24.2917 23.4001 24.1083 23.2251L19.8417 18.9584C19.675 18.7917 19.675 18.5334 19.8417 18.3667L24.875 13.3334C25.05 13.1667 25.3333 13.2667 25.3333 13.5084Z" fill="#F86F46"/>
</svg>
