<svg width="196" height="196" viewBox="0 0 196 196" fill="none" xmlns="http://www.w3.org/2000/svg">
<g opacity="0.3">
<path d="M145.448 44.8349V50.8783L116.538 34.1366C105.595 27.8482 90.3233 27.8482 79.4616 34.1366L50.5516 50.9599V44.8349C50.5516 26.4599 60.5966 16.3333 78.9716 16.3333H117.028C135.403 16.3333 145.448 26.4599 145.448 44.8349Z" fill="white"/>
<path d="M145.693 65.0883L144.55 64.5166L133.443 58.1466L110.413 44.835C103.39 40.7516 92.61 40.7516 85.5867 44.835L62.5567 58.065L51.45 64.5983L49.98 65.3333C35.6884 74.97 34.7084 76.7666 34.7084 92.2016V129.115C34.7084 144.55 35.6884 146.347 50.3067 156.228L85.5867 176.563C89.0984 178.687 93.5084 179.585 98 179.585C102.41 179.585 106.902 178.605 110.413 176.563L146.02 155.983C160.393 146.347 161.292 144.632 161.292 129.115V92.2016C161.292 76.7666 160.312 74.97 145.693 65.0883ZM120.785 110.25L115.803 116.375C114.987 117.273 114.415 118.988 114.497 120.213L114.987 128.053C115.313 132.872 111.883 135.322 107.392 133.607L100.123 130.667C98.98 130.258 97.1017 130.258 95.9584 130.667L88.69 133.525C84.1984 135.322 80.7684 132.79 81.095 127.972L81.585 120.132C81.6667 118.907 81.095 117.192 80.2784 116.293L75.215 110.25C72.1117 106.575 73.5 102.492 78.155 101.267L85.75 99.3066C86.975 98.98 88.3634 97.8366 89.0167 96.8566L93.2634 90.3233C95.8767 86.24 100.042 86.24 102.737 90.3233L106.983 96.8566C107.637 97.9183 109.107 98.98 110.25 99.3066L117.845 101.267C122.5 102.492 123.888 106.575 120.785 110.25Z" fill="white"/>
</g>
</svg>
