<svg width="47" height="38" viewBox="0 0 47 38" fill="none" xmlns="http://www.w3.org/2000/svg">
<path d="M23.5 3.1333C19.3953 3.1333 16.0583 6.4703 16.0583 10.575C16.0583 14.6013 19.2073 17.86 23.312 18.001C23.4373 17.9853 23.5627 17.9853 23.6567 18.001C23.688 18.001 23.7037 18.001 23.735 18.001C23.7507 18.001 23.7507 18.001 23.7663 18.001C27.777 17.86 30.926 14.6013 30.9417 10.575C30.9417 6.4703 27.6047 3.1333 23.5 3.1333Z" fill="url(#paint0_linear_63_34)"/>
<path d="M31.4587 22.1683C27.0877 19.2543 19.9594 19.2543 15.557 22.1683C13.5674 23.5 12.4707 25.3016 12.4707 27.2286C12.4707 29.1556 13.5674 30.9416 15.5414 32.2576C17.7347 33.7303 20.6174 34.4666 23.5 34.4666C26.3827 34.4666 29.2654 33.7303 31.4587 32.2576C33.4327 30.926 34.5294 29.14 34.5294 27.1973C34.5137 25.2703 33.4327 23.4843 31.4587 22.1683Z" fill="url(#paint1_linear_63_34)"/>
<path d="M40.7177 11.4993C40.9683 14.5386 38.8063 17.202 35.814 17.5623C35.7983 17.5623 35.7983 17.5623 35.7827 17.5623H35.7357C35.6417 17.5623 35.5477 17.5623 35.4693 17.5936C33.9497 17.672 32.5553 17.1863 31.5057 16.2933C33.1193 14.852 34.0437 12.69 33.8557 10.34C33.746 9.07098 33.3073 7.91164 32.6493 6.92464C33.2447 6.62698 33.934 6.43898 34.639 6.37631C37.7097 6.10998 40.4513 8.39731 40.7177 11.4993Z" fill="url(#paint2_linear_63_34)"/>
<path d="M43.851 25.9911C43.7257 27.5107 42.7544 28.8267 41.125 29.7197C39.5584 30.5814 37.5844 30.9887 35.626 30.9417C36.754 29.9234 37.412 28.6544 37.5374 27.3071C37.694 25.3644 36.7697 23.5001 34.921 22.0117C33.8714 21.1814 32.6494 20.5234 31.3177 20.0377C34.78 19.0351 39.1354 19.7087 41.8144 21.8707C43.2557 23.0301 43.992 24.4871 43.851 25.9911Z" fill="url(#paint3_linear_63_34)"/>
<path d="M23.5 3.1333C27.6047 3.1333 30.9417 6.4703 30.9417 10.575C30.9417 14.6013 27.7927 17.86 23.688 18.001C23.5627 17.9853 23.4373 17.9853 23.3433 18.001C23.312 18.001 23.2963 18.001 23.265 18.001C23.2493 18.001 23.2493 18.001 23.2337 18.001C19.223 17.86 16.074 14.6013 16.0583 10.575C16.0583 6.4703 19.3953 3.1333 23.5 3.1333Z" fill="url(#paint4_linear_63_34)"/>
<path d="M15.5413 22.1683C19.9123 19.2543 27.0406 19.2543 31.443 22.1683C33.4326 23.5 34.5293 25.3016 34.5293 27.2286C34.5293 29.1556 33.4326 30.9416 31.4586 32.2576C29.2653 33.7303 26.3826 34.4666 23.5 34.4666C20.6173 34.4666 17.7346 33.7303 15.5413 32.2576C13.5673 30.926 12.4706 29.14 12.4706 27.1973C12.4863 25.2703 13.5673 23.4843 15.5413 22.1683Z" fill="url(#paint5_linear_63_34)"/>
<path d="M6.28232 11.4993C6.03166 14.5386 8.19366 17.202 11.186 17.5623C11.2017 17.5623 11.2017 17.5623 11.2173 17.5623H11.2643C11.3583 17.5623 11.4523 17.5623 11.5307 17.5936C13.0503 17.672 14.4447 17.1863 15.4943 16.2933C13.8807 14.852 12.9563 12.69 13.1443 10.34C13.254 9.07098 13.6927 7.91164 14.3507 6.92464C13.7553 6.62698 13.066 6.43898 12.361 6.37631C9.29032 6.10998 6.54866 8.39731 6.28232 11.4993Z" fill="url(#paint6_linear_63_34)"/>
<path d="M3.14898 25.9911C3.27431 27.5107 4.24565 28.8267 5.87498 29.7197C7.44165 30.5814 9.41565 30.9887 11.374 30.9417C10.246 29.9234 9.58798 28.6544 9.46265 27.3071C9.30598 25.3644 10.2303 23.5001 12.079 22.0117C13.1286 21.1814 14.3506 20.5234 15.6823 20.0377C12.22 19.0351 7.86464 19.7087 5.18564 21.8707C3.74431 23.0301 3.00798 24.4871 3.14898 25.9911Z" fill="url(#paint7_linear_63_34)"/>
<defs>
<linearGradient id="paint0_linear_63_34" x1="23.5" y1="3.1333" x2="23.5" y2="18.001" gradientUnits="userSpaceOnUse">
<stop stop-color="#FF734A"/>
<stop offset="1" stop-color="#EA6640"/>
</linearGradient>
<linearGradient id="paint1_linear_63_34" x1="23.5" y1="19.9828" x2="23.5" y2="34.4666" gradientUnits="userSpaceOnUse">
<stop stop-color="#FF734A"/>
<stop offset="1" stop-color="#EA6640"/>
</linearGradient>
<linearGradient id="paint2_linear_63_34" x1="36.1216" y1="6.35522" x2="36.1216" y2="17.6019" gradientUnits="userSpaceOnUse">
<stop stop-color="#FF734A"/>
<stop offset="1" stop-color="#EA6640"/>
</linearGradient>
<linearGradient id="paint3_linear_63_34" x1="37.5929" y1="19.5828" x2="37.5929" y2="30.9454" gradientUnits="userSpaceOnUse">
<stop stop-color="#FF734A"/>
<stop offset="1" stop-color="#EA6640"/>
</linearGradient>
<linearGradient id="paint4_linear_63_34" x1="23.5" y1="3.1333" x2="23.5" y2="18.001" gradientUnits="userSpaceOnUse">
<stop stop-color="#FF734A"/>
<stop offset="1" stop-color="#EA6640"/>
</linearGradient>
<linearGradient id="paint5_linear_63_34" x1="23.5" y1="19.9828" x2="23.5" y2="34.4666" gradientUnits="userSpaceOnUse">
<stop stop-color="#FF734A"/>
<stop offset="1" stop-color="#EA6640"/>
</linearGradient>
<linearGradient id="paint6_linear_63_34" x1="10.8784" y1="6.35522" x2="10.8784" y2="17.6019" gradientUnits="userSpaceOnUse">
<stop stop-color="#FF734A"/>
<stop offset="1" stop-color="#EA6640"/>
</linearGradient>
<linearGradient id="paint7_linear_63_34" x1="9.4071" y1="19.5828" x2="9.4071" y2="30.9454" gradientUnits="userSpaceOnUse">
<stop stop-color="#FF734A"/>
<stop offset="1" stop-color="#EA6640"/>
</linearGradient>
</defs>
</svg>
