<svg width="34" height="34" viewBox="0 0 34 34" fill="none" xmlns="http://www.w3.org/2000/svg">
<rect width="34" height="34" rx="8" fill="#F86F46" fill-opacity="0.1"/>
<path d="M23.0625 13C24.2706 13 25.25 12.0206 25.25 10.8125C25.25 9.60438 24.2706 8.625 23.0625 8.625C21.8544 8.625 20.875 9.60438 20.875 10.8125C20.875 12.0206 21.8544 13 23.0625 13Z" fill="#F86F46"/>
<path d="M23.0625 13C24.2706 13 25.25 12.0206 25.25 10.8125C25.25 9.60438 24.2706 8.625 23.0625 8.625C21.8544 8.625 20.875 9.60438 20.875 10.8125C20.875 12.0206 21.8544 13 23.0625 13Z" fill="#F86F46"/>
<path d="M24.13 14.1463C23.5175 14.3387 22.8438 14.3737 22.1438 14.1987C20.9713 13.8925 20.0175 12.9562 19.6937 11.7837C19.5363 11.215 19.5275 10.655 19.6237 10.1475C19.7375 9.5875 19.3438 9.0625 18.7837 9.0625H12.125C9.5 9.0625 7.75 10.375 7.75 13.4375V19.5625C7.75 22.625 9.5 23.9375 12.125 23.9375H20.875C23.5 23.9375 25.25 22.625 25.25 19.5625V14.9775C25.25 14.4 24.69 13.9625 24.13 14.1463ZM19.58 15.7562L18.5475 16.5787C17.97 17.0425 17.235 17.27 16.5 17.27C15.765 17.27 15.0212 17.0425 14.4525 16.5787L11.7138 14.3912C11.4338 14.1637 11.39 13.7437 11.6087 13.4637C11.8362 13.1837 12.2475 13.1312 12.5275 13.3587L15.2663 15.5462C15.9313 16.08 17.06 16.08 17.725 15.5462L18.7575 14.7237C19.0375 14.4962 19.4575 14.54 19.6763 14.8287C19.9038 15.1087 19.86 15.5287 19.58 15.7562Z" fill="#F86F46"/>
</svg>
