<svg width="47" height="47" viewBox="0 0 47 47" fill="none" xmlns="http://www.w3.org/2000/svg">
<path d="M43.0833 9.49787V32.7825C43.0833 34.682 41.5362 36.425 39.6367 36.66L39.0296 36.7383C35.8179 37.1691 31.2942 38.5008 27.6517 40.0283C26.3787 40.557 24.9688 39.5975 24.9688 38.207V10.9666C24.9688 10.242 25.38 9.57621 26.0263 9.22371C29.61 7.28496 35.0346 5.56162 38.7163 5.24829H38.8337C41.1838 5.24829 43.0833 7.14787 43.0833 9.49787Z" fill="url(#paint0_linear_63_28)"/>
<path d="M20.9738 9.22371C17.39 7.28496 11.9654 5.56162 8.28376 5.24829H8.14668C5.79668 5.24829 3.89709 7.14787 3.89709 9.49787V32.7825C3.89709 34.682 5.44418 36.425 7.34376 36.66L7.95084 36.7383C11.1625 37.1691 15.6863 38.5008 19.3288 40.0283C20.6017 40.557 22.0117 39.5975 22.0117 38.207V10.9666C22.0117 10.2225 21.62 9.57621 20.9738 9.22371ZM9.79168 15.1575H14.1979C15.0008 15.1575 15.6667 15.8233 15.6667 16.6262C15.6667 17.4487 15.0008 18.095 14.1979 18.095H9.79168C8.98876 18.095 8.32293 17.4487 8.32293 16.6262C8.32293 15.8233 8.98876 15.1575 9.79168 15.1575ZM15.6667 23.97H9.79168C8.98876 23.97 8.32293 23.3237 8.32293 22.5012C8.32293 21.6983 8.98876 21.0325 9.79168 21.0325H15.6667C16.4696 21.0325 17.1354 21.6983 17.1354 22.5012C17.1354 23.3237 16.4696 23.97 15.6667 23.97Z" fill="url(#paint1_linear_63_28)"/>
<defs>
<linearGradient id="paint0_linear_63_28" x1="34.026" y1="5.24829" x2="34.026" y2="40.1757" gradientUnits="userSpaceOnUse">
<stop stop-color="#FF734A"/>
<stop offset="1" stop-color="#EA6640"/>
</linearGradient>
<linearGradient id="paint1_linear_63_28" x1="12.9544" y1="5.24829" x2="12.9544" y2="40.1757" gradientUnits="userSpaceOnUse">
<stop stop-color="#FF734A"/>
<stop offset="1" stop-color="#EA6640"/>
</linearGradient>
</defs>
</svg>
