<svg width="34" height="34" viewBox="0 0 34 34" fill="none" xmlns="http://www.w3.org/2000/svg">
<rect width="34" height="34" rx="8" fill="#F86F46" fill-opacity="0.1"/>
<path d="M16.2083 19.4582L14.6666 20.9998C14.3416 21.3248 13.825 21.3248 13.4916 21.0082C13.4 20.9165 13.3083 20.8332 13.2166 20.7415C12.3583 19.8748 11.5833 18.9665 10.8916 18.0165C10.2083 17.0665 9.65829 16.1165 9.25829 15.1748C8.86663 14.2248 8.66663 13.3165 8.66663 12.4498C8.66663 11.8832 8.76663 11.3415 8.96663 10.8415C9.16663 10.3332 9.48329 9.8665 9.92496 9.44984C10.4583 8.92484 11.0416 8.6665 11.6583 8.6665C11.8916 8.6665 12.125 8.7165 12.3333 8.8165C12.55 8.9165 12.7416 9.0665 12.8916 9.28317L14.825 12.0082C14.975 12.2165 15.0833 12.4082 15.1583 12.5915C15.2333 12.7665 15.275 12.9415 15.275 13.0998C15.275 13.2998 15.2166 13.4998 15.1 13.6915C14.9916 13.8832 14.8333 14.0832 14.6333 14.2832L14 14.9415C13.9083 15.0332 13.8666 15.1415 13.8666 15.2748C13.8666 15.3415 13.875 15.3998 13.8916 15.4665C13.9166 15.5332 13.9416 15.5832 13.9583 15.6332C14.1083 15.9082 14.3666 16.2665 14.7333 16.6998C15.1083 17.1332 15.5083 17.5748 15.9416 18.0165C16.025 18.0998 16.1166 18.1832 16.2 18.2665C16.5333 18.5915 16.5416 19.1248 16.2083 19.4582Z" fill="#F86F46"/>
<path d="M25.3083 22.2752C25.3083 22.5085 25.2667 22.7502 25.1833 22.9835C25.1583 23.0502 25.1333 23.1169 25.1 23.1835C24.9583 23.4835 24.775 23.7669 24.5333 24.0335C24.125 24.4835 23.675 24.8085 23.1667 25.0169C23.1583 25.0169 23.15 25.0252 23.1417 25.0252C22.65 25.2252 22.1167 25.3335 21.5417 25.3335C20.6917 25.3335 19.7833 25.1335 18.825 24.7252C17.8667 24.3169 16.9083 23.7669 15.9583 23.0752C15.6333 22.8335 15.3083 22.5919 15 22.3335L17.725 19.6085C17.9583 19.7835 18.1667 19.9169 18.3417 20.0085C18.3833 20.0252 18.4333 20.0502 18.4917 20.0752C18.5583 20.1002 18.625 20.1085 18.7 20.1085C18.8417 20.1085 18.95 20.0585 19.0417 19.9669L19.675 19.3419C19.8833 19.1335 20.0833 18.9752 20.275 18.8752C20.4667 18.7585 20.6583 18.7002 20.8667 18.7002C21.025 18.7002 21.1917 18.7335 21.375 18.8085C21.5583 18.8835 21.75 18.9919 21.9583 19.1335L24.7167 21.0919C24.9333 21.2419 25.0833 21.4169 25.175 21.6252C25.2583 21.8335 25.3083 22.0419 25.3083 22.2752Z" fill="#F86F46"/>
</svg>
