<svg width="47" height="47" viewBox="0 0 47 47" fill="none" xmlns="http://www.w3.org/2000/svg">
<path d="M43.0833 6.36462H3.91663C3.11371 6.36462 2.44788 5.69879 2.44788 4.89587C2.44788 4.09296 3.11371 3.42712 3.91663 3.42712H43.0833C43.8862 3.42712 44.552 4.09296 44.552 4.89587C44.552 5.69879 43.8862 6.36462 43.0833 6.36462Z" fill="url(#paint0_linear_64_66)"/>
<path d="M7.18713 4.89587V28.3371C7.18713 30.2563 8.08797 32.0775 9.63505 33.233L19.838 40.8705C22.0117 42.4959 25.008 42.4959 27.1817 40.8705L37.3846 33.233C38.9317 32.0775 39.8326 30.2563 39.8326 28.3371V4.89587H7.18713ZM31.3334 26.9271H15.6667C14.8638 26.9271 14.198 26.2613 14.198 25.4584C14.198 24.6555 14.8638 23.9896 15.6667 23.9896H31.3334C32.1363 23.9896 32.8021 24.6555 32.8021 25.4584C32.8021 26.2613 32.1363 26.9271 31.3334 26.9271ZM31.3334 17.1355H15.6667C14.8638 17.1355 14.198 16.4696 14.198 15.6667C14.198 14.8638 14.8638 14.198 15.6667 14.198H31.3334C32.1363 14.198 32.8021 14.8638 32.8021 15.6667C32.8021 16.4696 32.1363 17.1355 31.3334 17.1355Z" fill="url(#paint1_linear_64_66)"/>
<defs>
<linearGradient id="paint0_linear_64_66" x1="23.5" y1="3.42712" x2="23.5" y2="6.36462" gradientUnits="userSpaceOnUse">
<stop stop-color="#FF734A"/>
<stop offset="1" stop-color="#EA6640"/>
</linearGradient>
<linearGradient id="paint1_linear_64_66" x1="23.5098" y1="4.89587" x2="23.5098" y2="42.0895" gradientUnits="userSpaceOnUse">
<stop stop-color="#FF734A"/>
<stop offset="1" stop-color="#EA6640"/>
</linearGradient>
</defs>
</svg>
